<?xml version="1.0" standalone="no"?><!-- Generator: Gravit.io --><svg xmlns="http://www.w3.org/2000/svg" xmlns:xlink="http://www.w3.org/1999/xlink" style="isolation:isolate" viewBox="0 0 50 50" width="50" height="50"><defs><clipPath id="_clipPath_UWrqN1yJYPKjYDKx9py8B9lviXpSunSw"><rect width="50" height="50"/></clipPath></defs><g clip-path="url(#_clipPath_UWrqN1yJYPKjYDKx9py8B9lviXpSunSw)"><g><path d=" M 40.4 35.75 C 35.9 35.75 33.8 30.45 31.8 25.35 C 30 20.85 28.2 16.25 25 16.25 C 21.8 16.25 20 20.85 18.2 25.35 C 16.2 30.45 14.1 35.75 9.6 35.75 C 5.1 35.75 6.4 33.75 9.6 33.75 C 12.8 33.75 14.6 29.15 16.4 24.65 C 18.4 19.55 20.5 14.25 25 14.25 C 29.5 14.25 31.6 19.55 33.6 24.65 C 35.4 29.15 37.2 33.75 40.4 33.75 C 43.6 33.75 44.9 35.75 40.4 35.75 Z " fill="rgb(255,255,255)" vector-effect="non-scaling-stroke" stroke-width="1" stroke="rgb(255,255,255)" stroke-linejoin="miter" stroke-linecap="butt" stroke-miterlimit="4"/></g></g></svg>